<svg width="190" height="216" viewBox="0 0 190 216" fill="none" xmlns="http://www.w3.org/2000/svg">
<path d="M0 30C0 13.4315 13.4315 0 30 0H160C176.569 0 190 13.4315 190 30V186C190 202.569 176.569 216 160 216H30C13.4315 216 0 202.569 0 186V30Z" fill="white"/>
<g clip-path="url(#clip0_29_252)">
<path fill-rule="evenodd" clip-rule="evenodd" d="M103.382 198.382C104.668 198.382 105.711 197.34 105.711 196.054C105.711 194.768 104.668 193.725 103.382 193.725C102.096 193.725 101.054 194.768 101.054 196.054C101.054 197.34 102.096 198.382 103.382 198.382Z" fill="#E1E1E1"/>
<path fill-rule="evenodd" clip-rule="evenodd" d="M94.9999 198.382C96.2859 198.382 97.3284 197.34 97.3284 196.054C97.3284 194.768 96.2859 193.725 94.9999 193.725C93.714 193.725 92.6715 194.768 92.6715 196.054C92.6715 197.34 93.714 198.382 94.9999 198.382Z" fill="#E1E1E1"/>
<path fill-rule="evenodd" clip-rule="evenodd" d="M86.6176 198.382C87.9036 198.382 88.946 197.34 88.946 196.054C88.946 194.768 87.9036 193.725 86.6176 193.725C85.3317 193.725 84.2892 194.768 84.2892 196.054C84.2892 197.34 85.3317 198.382 86.6176 198.382Z" fill="#292E47"/>
</g>
<path d="M132.705 59.6693C132.705 58.9478 132.852 58.3088 133.148 57.7525C133.452 57.1962 133.861 56.7659 134.374 56.4616C134.895 56.1487 135.473 55.9922 136.108 55.9922C136.577 55.9922 137.038 56.0965 137.49 56.3051C137.951 56.5051 138.316 56.7746 138.585 57.1136V53.6451H140.085V63.2942H138.585V62.2119C138.342 62.5596 138.003 62.8465 137.568 63.0725C137.142 63.2985 136.651 63.4115 136.095 63.4115C135.469 63.4115 134.895 63.255 134.374 62.9421C133.861 62.6205 133.452 62.1771 133.148 61.6121C132.852 61.0384 132.705 60.3908 132.705 59.6693ZM138.585 59.6953C138.585 59.1998 138.481 58.7696 138.272 58.4045C138.072 58.0394 137.807 57.7612 137.477 57.5699C137.147 57.3787 136.79 57.2831 136.408 57.2831C136.025 57.2831 135.669 57.3787 135.339 57.5699C135.008 57.7525 134.739 58.0263 134.53 58.3914C134.33 58.7478 134.23 59.1738 134.23 59.6693C134.23 60.1647 134.33 60.5994 134.53 60.9732C134.739 61.347 135.008 61.6338 135.339 61.8338C135.678 62.025 136.034 62.1206 136.408 62.1206C136.79 62.1206 137.147 62.025 137.477 61.8338C137.807 61.6425 138.072 61.3644 138.272 60.9993C138.481 60.6255 138.585 60.1908 138.585 59.6953Z" fill="#292E47"/>
<path d="M129.682 57.1527C129.9 56.7876 130.186 56.5051 130.543 56.3051C130.908 56.0965 131.338 55.9922 131.834 55.9922V57.5308H131.456C130.873 57.5308 130.43 57.6786 130.126 57.9741C129.83 58.2697 129.682 58.7826 129.682 59.5128V63.2941H128.196V56.1095H129.682V57.1527Z" fill="#292E47"/>
<path d="M118.863 59.6692C118.863 58.9477 119.011 58.3088 119.306 57.7525C119.611 57.1961 120.019 56.7658 120.532 56.4616C121.054 56.1487 121.627 55.9922 122.253 55.9922C122.818 55.9922 123.31 56.1052 123.727 56.3312C124.153 56.5485 124.492 56.8224 124.744 57.1527V56.1095H126.243V63.2941H124.744V62.2249C124.492 62.564 124.148 62.8465 123.714 63.0725C123.279 63.2985 122.784 63.4115 122.227 63.4115C121.61 63.4115 121.045 63.255 120.532 62.9421C120.019 62.6205 119.611 62.1771 119.306 61.6121C119.011 61.0384 118.863 60.3907 118.863 59.6692ZM124.744 59.6953C124.744 59.1998 124.64 58.7695 124.431 58.4044C124.231 58.0393 123.966 57.7612 123.636 57.5699C123.305 57.3787 122.949 57.2831 122.566 57.2831C122.184 57.2831 121.827 57.3787 121.497 57.5699C121.167 57.7525 120.897 58.0263 120.689 58.3914C120.489 58.7478 120.389 59.1738 120.389 59.6692C120.389 60.1647 120.489 60.5994 120.689 60.9732C120.897 61.347 121.167 61.6338 121.497 61.8338C121.836 62.025 122.193 62.1206 122.566 62.1206C122.949 62.1206 123.305 62.025 123.636 61.8338C123.966 61.6425 124.231 61.3643 124.431 60.9992C124.64 60.6255 124.744 60.1908 124.744 59.6953Z" fill="#292E47"/>
<path d="M111.045 59.6953C111.045 58.9564 111.192 58.3088 111.488 57.7525C111.792 57.1874 112.21 56.7528 112.74 56.4486C113.27 56.1443 113.879 55.9922 114.565 55.9922C115.435 55.9922 116.152 56.2008 116.717 56.6181C117.29 57.0266 117.677 57.6134 117.877 58.3784H116.273C116.143 58.022 115.934 57.7438 115.648 57.5439C115.361 57.3439 115 57.244 114.565 57.244C113.957 57.244 113.47 57.4613 113.105 57.8959C112.748 58.3219 112.57 58.9217 112.57 59.6953C112.57 60.469 112.748 61.0731 113.105 61.5078C113.47 61.9424 113.957 62.1597 114.565 62.1597C115.426 62.1597 115.995 61.7816 116.273 61.0253H117.877C117.669 61.7555 117.277 62.3379 116.704 62.7726C116.13 63.1985 115.417 63.4115 114.565 63.4115C113.879 63.4115 113.27 63.2594 112.74 62.9551C112.21 62.6422 111.792 62.2075 111.488 61.6512C111.192 61.0862 111.045 60.4342 111.045 59.6953Z" fill="#292E47"/>
<path d="M104.635 57.1527C104.853 56.7876 105.139 56.5051 105.496 56.3051C105.861 56.0965 106.291 55.9922 106.787 55.9922V57.5308H106.409C105.826 57.5308 105.383 57.6786 105.079 57.9741C104.783 58.2697 104.635 58.7826 104.635 59.5128V63.2941H103.149V56.1095H104.635V57.1527Z" fill="#292E47"/>
<path d="M101.187 56.1096V63.2942H99.701V62.4466C99.4663 62.7422 99.1577 62.9769 98.7752 63.1507C98.4014 63.3159 98.0016 63.3985 97.5756 63.3985C97.0106 63.3985 96.5021 63.2811 96.05 63.0464C95.6067 62.8117 95.2547 62.464 94.9939 62.0033C94.7418 61.5426 94.6157 60.9862 94.6157 60.3343V56.1096H96.0892V60.1126C96.0892 60.7559 96.25 61.2514 96.5716 61.5991C96.8932 61.9381 97.3322 62.1076 97.8886 62.1076C98.4449 62.1076 98.8839 61.9381 99.2055 61.5991C99.5359 61.2514 99.701 60.7559 99.701 60.1126V56.1096H101.187Z" fill="#292E47"/>
<path d="M89.4822 63.4115C88.8042 63.4115 88.1914 63.2594 87.6437 62.9551C87.0961 62.6422 86.6658 62.2075 86.3528 61.6512C86.0399 61.0862 85.8834 60.4342 85.8834 59.6953C85.8834 58.9651 86.0442 58.3175 86.3659 57.7525C86.6875 57.1874 87.1265 56.7528 87.6828 56.4486C88.2392 56.1443 88.8607 55.9922 89.5474 55.9922C90.2342 55.9922 90.8557 56.1443 91.412 56.4486C91.9684 56.7528 92.4074 57.1874 92.729 57.7525C93.0506 58.3175 93.2115 58.9651 93.2115 59.6953C93.2115 60.4255 93.0463 61.0731 92.716 61.6382C92.3856 62.2032 91.9336 62.6422 91.3599 62.9551C90.7949 63.2594 90.169 63.4115 89.4822 63.4115ZM89.4822 62.1206C89.8647 62.1206 90.2211 62.0293 90.5515 61.8468C90.8905 61.6642 91.1643 61.3904 91.3729 61.0253C91.5816 60.6602 91.6859 60.2169 91.6859 59.6953C91.6859 59.1738 91.5859 58.7348 91.386 58.3784C91.186 58.0133 90.9209 57.7394 90.5906 57.5569C90.2602 57.3743 89.9038 57.2831 89.5214 57.2831C89.1389 57.2831 88.7825 57.3743 88.4521 57.5569C88.1305 57.7394 87.8741 58.0133 87.6828 58.3784C87.4916 58.7348 87.396 59.1738 87.396 59.6953C87.396 60.469 87.5916 61.0688 87.9827 61.4947C88.3826 61.912 88.8824 62.1206 89.4822 62.1206Z" fill="#292E47"/>
<path d="M85.2441 56.1096L80.8368 66.6713H79.2982L80.7586 63.1768L77.9291 56.1096H79.5851L81.6061 61.586L83.7054 56.1096H85.2441Z" fill="#292E47"/>
<path d="M73.9266 59.5258C73.9266 59.7953 73.9092 60.0387 73.8745 60.256H68.3849C68.4284 60.8297 68.6414 61.2905 69.0239 61.6382C69.4063 61.9859 69.8758 62.1597 70.4321 62.1597C71.2318 62.1597 71.7969 61.8251 72.1272 61.1557H73.731C73.5137 61.8164 73.1182 62.3597 72.5444 62.7856C71.9794 63.2029 71.2753 63.4115 70.4321 63.4115C69.7454 63.4115 69.1282 63.2594 68.5805 62.9551C68.0416 62.6422 67.6156 62.2075 67.3027 61.6512C66.9984 61.0862 66.8463 60.4342 66.8463 59.6953C66.8463 58.9564 66.9941 58.3088 67.2896 57.7525C67.5939 57.1874 68.0155 56.7528 68.5545 56.4486C69.1021 56.1443 69.728 55.9922 70.4321 55.9922C71.1101 55.9922 71.7143 56.14 72.2445 56.4355C72.7748 56.7311 73.1877 57.1483 73.4833 57.6873C73.7788 58.2175 73.9266 58.8304 73.9266 59.5258ZM72.3749 59.0564C72.3662 58.5088 72.1707 58.0698 71.7882 57.7394C71.4057 57.4091 70.9319 57.244 70.3669 57.244C69.854 57.244 69.415 57.4091 69.0499 57.7394C68.6848 58.0611 68.4675 58.5001 68.398 59.0564H72.3749Z" fill="#292E47"/>
<path d="M62.9844 63.4115C62.4193 63.4115 61.9108 63.3115 61.4588 63.1116C61.0154 62.903 60.6634 62.6248 60.4026 62.2771C60.1418 61.9207 60.0027 61.5252 59.9854 61.0905H61.524C61.5501 61.3948 61.6935 61.6512 61.9543 61.8598C62.2238 62.0598 62.5584 62.1597 62.9583 62.1597C63.3755 62.1597 63.6972 62.0815 63.9232 61.925C64.1579 61.7599 64.2753 61.5512 64.2753 61.2991C64.2753 61.0297 64.1449 60.8297 63.8841 60.6993C63.632 60.569 63.2278 60.4255 62.6714 60.2691C62.1325 60.1213 61.6935 59.9778 61.3545 59.8388C61.0154 59.6997 60.7199 59.4867 60.4678 59.1998C60.2244 58.913 60.1027 58.5348 60.1027 58.0654C60.1027 57.6829 60.2157 57.3352 60.4417 57.0223C60.6677 56.7007 60.9894 56.4486 61.4066 56.266C61.8326 56.0835 62.3194 55.9922 62.867 55.9922C63.6841 55.9922 64.3404 56.2008 64.8359 56.6181C65.3401 57.0266 65.6096 57.5873 65.6444 58.3001H64.1579C64.1318 57.9785 64.0014 57.7221 63.7667 57.5308C63.532 57.3396 63.2147 57.244 62.8149 57.244C62.4237 57.244 62.1238 57.3178 61.9152 57.4656C61.7065 57.6134 61.6022 57.809 61.6022 58.0524C61.6022 58.2436 61.6718 58.4044 61.8108 58.5348C61.9499 58.6652 62.1194 58.7695 62.3194 58.8478C62.5193 58.9173 62.8149 59.0086 63.206 59.1216C63.7276 59.2607 64.1536 59.4041 64.4839 59.5519C64.8229 59.691 65.1141 59.8996 65.3575 60.1778C65.6009 60.4559 65.727 60.8254 65.7356 61.2861C65.7356 61.6947 65.6226 62.0598 65.3966 62.3814C65.1706 62.703 64.849 62.9551 64.4317 63.1377C64.0232 63.3202 63.5407 63.4115 62.9844 63.4115Z" fill="#292E47"/>
<path d="M55.1779 63.4115C54.4999 63.4115 53.887 63.2594 53.3394 62.9551C52.7917 62.6422 52.3615 62.2075 52.0485 61.6512C51.7356 61.0862 51.5791 60.4342 51.5791 59.6953C51.5791 58.9651 51.7399 58.3175 52.0616 57.7525C52.3832 57.1874 52.8222 56.7528 53.3785 56.4486C53.9349 56.1443 54.5564 55.9922 55.2431 55.9922C55.9299 55.9922 56.5514 56.1443 57.1077 56.4486C57.6641 56.7528 58.1031 57.1874 58.4247 57.7525C58.7463 58.3175 58.9071 58.9651 58.9071 59.6953C58.9071 60.4255 58.742 61.0731 58.4116 61.6382C58.0813 62.2032 57.6293 62.6422 57.0556 62.9551C56.4905 63.2594 55.8647 63.4115 55.1779 63.4115ZM55.1779 62.1206C55.5604 62.1206 55.9168 62.0293 56.2471 61.8468C56.5862 61.6642 56.86 61.3904 57.0686 61.0253C57.2772 60.6602 57.3816 60.2169 57.3816 59.6953C57.3816 59.1738 57.2816 58.7348 57.0816 58.3784C56.8817 58.0133 56.6166 57.7394 56.2863 57.5569C55.9559 57.3743 55.5995 57.2831 55.217 57.2831C54.8346 57.2831 54.4782 57.3743 54.1478 57.5569C53.8262 57.7394 53.5698 58.0133 53.3785 58.3784C53.1873 58.7348 53.0917 59.1738 53.0917 59.6953C53.0917 60.469 53.2872 61.0688 53.6784 61.4947C54.0783 61.912 54.5781 62.1206 55.1779 62.1206Z" fill="#292E47"/>
<path d="M46.8629 63.4115C46.1848 63.4115 45.572 63.2594 45.0243 62.9551C44.4767 62.6422 44.0464 62.2075 43.7334 61.6512C43.4205 61.0862 43.264 60.4342 43.264 59.6953C43.264 58.9651 43.4249 58.3175 43.7465 57.7525C44.0681 57.1874 44.5071 56.7528 45.0634 56.4486C45.6198 56.1443 46.2413 55.9922 46.9281 55.9922C47.6148 55.9922 48.2363 56.1443 48.7927 56.4486C49.349 56.7528 49.788 57.1874 50.1096 57.7525C50.4313 58.3175 50.5921 58.9651 50.5921 59.6953C50.5921 60.4255 50.4269 61.0731 50.0966 61.6382C49.7663 62.2032 49.3142 62.6422 48.7405 62.9551C48.1755 63.2594 47.5496 63.4115 46.8629 63.4115ZM46.8629 62.1206C47.2453 62.1206 47.6018 62.0293 47.9321 61.8468C48.2711 61.6642 48.5449 61.3904 48.7535 61.0253C48.9622 60.6602 49.0665 60.2169 49.0665 59.6953C49.0665 59.1738 48.9665 58.7348 48.7666 58.3784C48.5667 58.0133 48.3015 57.7394 47.9712 57.5569C47.6409 57.3743 47.2845 57.2831 46.902 57.2831C46.5195 57.2831 46.1631 57.3743 45.8328 57.5569C45.5111 57.7394 45.2547 58.0133 45.0634 58.3784C44.8722 58.7348 44.7766 59.1738 44.7766 59.6953C44.7766 60.469 44.9722 61.0688 45.3634 61.4947C45.7632 61.912 46.2631 62.1206 46.8629 62.1206Z" fill="#292E47"/>
<path d="M38.9949 55.9922C39.5425 55.9922 40.0293 56.1096 40.4553 56.3443C40.8899 56.579 41.2289 56.9267 41.4723 57.3874C41.7244 57.8481 41.8505 58.4045 41.8505 59.0564V63.2942H40.377V59.2781C40.377 58.6348 40.2162 58.1437 39.8946 57.8047C39.5729 57.4569 39.1339 57.2831 38.5776 57.2831C38.0213 57.2831 37.5779 57.4569 37.2476 57.8047C36.926 58.1437 36.7652 58.6348 36.7652 59.2781V63.2942H35.2787V53.6451H36.7652V56.9441C37.0172 56.6398 37.3345 56.4051 37.717 56.2399C38.1082 56.0748 38.5341 55.9922 38.9949 55.9922Z" fill="#292E47"/>
<path d="M24.6981 58.7435C24.6981 57.8568 24.9024 57.0614 25.311 56.3573C25.7282 55.6532 26.2889 55.1055 26.993 54.7144C27.7058 54.3145 28.4838 54.1146 29.327 54.1146C30.2919 54.1146 31.1482 54.3536 31.8958 54.8317C32.652 55.3011 33.1997 55.9705 33.5387 56.8398H31.7523C31.5176 56.3617 31.1916 56.0052 30.7744 55.7705C30.3571 55.5358 29.8747 55.4185 29.327 55.4185C28.7272 55.4185 28.1926 55.5532 27.7232 55.8227C27.2538 56.0922 26.8844 56.479 26.6149 56.9832C26.3541 57.4874 26.2237 58.0741 26.2237 58.7435C26.2237 59.4128 26.3541 59.9996 26.6149 60.5038C26.8844 61.008 27.2538 61.3991 27.7232 61.6773C28.1926 61.9468 28.7272 62.0815 29.327 62.0815C29.8747 62.0815 30.3571 61.9642 30.7744 61.7295C31.1916 61.4948 31.5176 61.1384 31.7523 60.6602H33.5387C33.1997 61.5295 32.652 62.1989 31.8958 62.6683C31.1482 63.1377 30.2919 63.3724 29.327 63.3724C28.4751 63.3724 27.6971 63.1768 26.993 62.7856C26.2889 62.3858 25.7282 61.8338 25.311 61.1297C24.9024 60.4255 24.6981 59.6302 24.6981 58.7435Z" fill="#292E47"/>
<g filter="url(#filter0_dddd_29_252)">
<path d="M24.2157 96.8628C24.2157 86.5751 32.5555 78.2353 42.8431 78.2353H147.157C157.445 78.2353 165.784 86.5751 165.784 96.8627V143.431C165.784 153.719 157.445 162.059 147.157 162.059H42.8431C32.5555 162.059 24.2157 153.719 24.2157 143.431V96.8628Z" fill="#072AC8"/>
</g>
<path d="M55.6915 103.357V103.112H55.6272L55.5528 103.28L55.4788 103.112H55.4141V103.357H55.4598V103.172L55.5293 103.332H55.5767L55.6462 103.172V103.357H55.6915ZM55.2834 103.357V103.154H55.3659V103.112H55.1556V103.154H55.2381V103.357H55.2834Z" fill="#F79410"/>
<path d="M48.4081 104.41H42.8661V94.4874H48.4081V104.41Z" fill="#FF5F00"/>
<path d="M43.221 99.4479C43.221 97.435 44.167 95.642 45.6401 94.4865C44.5629 93.6416 43.2033 93.1372 41.7257 93.1372C38.2277 93.1372 35.3922 95.9626 35.3922 99.4479C35.3922 102.933 38.2277 105.759 41.7257 105.759C43.2033 105.759 44.5629 105.254 45.6401 104.409C44.167 103.254 43.221 101.461 43.221 99.4479Z" fill="#EB001B"/>
<path d="M55.8826 99.4479C55.8826 102.933 53.0471 105.759 49.5491 105.759C48.0715 105.759 46.7119 105.254 45.6343 104.409C47.1078 103.254 48.0538 101.461 48.0538 99.4479C48.0538 97.435 47.1078 95.642 45.6343 94.4865C46.7119 93.6416 48.0715 93.1372 49.5491 93.1372C53.0471 93.1372 55.8826 95.9626 55.8826 99.4479Z" fill="#F79E1B"/>
<path d="M147.982 138.56C147.982 137.379 148.18 136.457 148.576 135.794C148.979 135.125 149.669 134.79 150.645 134.79C151.622 134.79 152.309 135.125 152.705 135.794C153.108 136.457 153.309 137.379 153.309 138.56C153.309 139.756 153.108 140.691 152.705 141.368C152.309 142.037 151.622 142.372 150.645 142.372C149.669 142.372 148.979 142.037 148.576 141.368C148.18 140.691 147.982 139.756 147.982 138.56ZM152.162 138.56C152.162 138.007 152.124 137.539 152.049 137.157C151.981 136.774 151.837 136.464 151.619 136.225C151.4 135.979 151.076 135.856 150.645 135.856C150.215 135.856 149.891 135.979 149.672 136.225C149.454 136.464 149.307 136.774 149.232 137.157C149.163 137.539 149.129 138.007 149.129 138.56C149.129 139.134 149.163 139.616 149.232 140.005C149.3 140.394 149.443 140.709 149.662 140.948C149.887 141.187 150.215 141.306 150.645 141.306C151.076 141.306 151.4 141.187 151.619 140.948C151.844 140.709 151.991 140.394 152.059 140.005C152.128 139.616 152.162 139.134 152.162 138.56Z" fill="#CCD0E8"/>
<path d="M141.413 136.768C141.453 136.132 141.696 135.637 142.14 135.282C142.591 134.927 143.164 134.749 143.861 134.749C144.339 134.749 144.752 134.835 145.101 135.005C145.449 135.176 145.712 135.408 145.89 135.702C146.067 135.996 146.156 136.327 146.156 136.696C146.156 137.119 146.043 137.481 145.818 137.782C145.593 138.082 145.323 138.284 145.009 138.386V138.427C145.412 138.55 145.726 138.776 145.951 139.103C146.176 139.425 146.289 139.838 146.289 140.343C146.289 140.746 146.197 141.105 146.013 141.419C145.828 141.733 145.555 141.982 145.193 142.167C144.831 142.344 144.397 142.433 143.892 142.433C143.154 142.433 142.546 142.245 142.068 141.87C141.597 141.487 141.344 140.941 141.31 140.23H142.437C142.464 140.592 142.604 140.89 142.857 141.122C143.11 141.347 143.451 141.46 143.882 141.46C144.298 141.46 144.619 141.347 144.845 141.122C145.07 140.89 145.183 140.592 145.183 140.23C145.183 139.752 145.029 139.414 144.722 139.216C144.421 139.011 143.957 138.909 143.328 138.909H143.062V137.946H143.339C143.892 137.939 144.312 137.847 144.599 137.669C144.892 137.492 145.039 137.212 145.039 136.829C145.039 136.501 144.933 136.242 144.722 136.05C144.51 135.852 144.209 135.753 143.82 135.753C143.438 135.753 143.141 135.852 142.929 136.05C142.717 136.242 142.591 136.481 142.55 136.768H141.413Z" fill="#CCD0E8"/>
<path d="M137.232 135.989V134.924H139.363V142.392H138.185V135.989H137.232Z" fill="#CCD0E8"/>
<path d="M131.652 140.804C132.308 140.237 132.824 139.773 133.199 139.411C133.582 139.042 133.899 138.66 134.152 138.263C134.405 137.867 134.531 137.471 134.531 137.075C134.531 136.665 134.432 136.344 134.234 136.112C134.043 135.88 133.739 135.764 133.322 135.764C132.919 135.764 132.605 135.893 132.38 136.153C132.161 136.406 132.045 136.747 132.031 137.177H130.904C130.925 136.399 131.157 135.805 131.601 135.395C132.052 134.978 132.622 134.77 133.312 134.77C134.056 134.77 134.637 134.975 135.054 135.385C135.477 135.794 135.689 136.341 135.689 137.024C135.689 137.516 135.563 137.99 135.31 138.448C135.064 138.899 134.767 139.305 134.418 139.667C134.077 140.022 133.64 140.435 133.107 140.907L132.646 141.316H135.894V142.29H130.915V141.439L131.652 140.804Z" fill="#CCD0E8"/>
<path opacity="0.3" d="M38.1863 139.24C38.1863 140.012 37.5608 140.637 36.7893 140.637C36.0177 140.637 35.3922 140.012 35.3922 139.24C35.3922 138.469 36.0177 137.843 36.7893 137.843C37.5608 137.843 38.1863 138.469 38.1863 139.24Z" fill="#CCD0E8"/>
<path opacity="0.3" d="M69.853 139.24C69.853 140.012 69.2275 140.637 68.4559 140.637C67.6843 140.637 67.0588 140.012 67.0588 139.24C67.0588 138.469 67.6843 137.843 68.4559 137.843C69.2275 137.843 69.853 138.469 69.853 139.24Z" fill="#CCD0E8"/>
<path opacity="0.3" d="M101.52 139.24C101.52 140.012 100.894 140.637 100.123 140.637C99.3509 140.637 98.7255 140.012 98.7255 139.24C98.7255 138.469 99.3509 137.843 100.123 137.843C100.894 137.843 101.52 138.469 101.52 139.24Z" fill="#CCD0E8"/>
<path opacity="0.3" d="M44.7059 139.24C44.7059 140.012 44.0804 140.637 43.3088 140.637C42.5372 140.637 41.9117 140.012 41.9117 139.24C41.9117 138.469 42.5372 137.843 43.3088 137.843C44.0804 137.843 44.7059 138.469 44.7059 139.24Z" fill="#CCD0E8"/>
<path opacity="0.3" d="M76.3725 139.24C76.3725 140.012 75.747 140.637 74.9754 140.637C74.2039 140.637 73.5784 140.012 73.5784 139.24C73.5784 138.469 74.2039 137.843 74.9754 137.843C75.747 137.843 76.3725 138.469 76.3725 139.24Z" fill="#CCD0E8"/>
<path opacity="0.3" d="M108.039 139.24C108.039 140.012 107.414 140.637 106.642 140.637C105.871 140.637 105.245 140.012 105.245 139.24C105.245 138.469 105.871 137.843 106.642 137.843C107.414 137.843 108.039 138.469 108.039 139.24Z" fill="#CCD0E8"/>
<path opacity="0.3" d="M51.2255 139.24C51.2255 140.012 50.6 140.637 49.8285 140.637C49.0569 140.637 48.4314 140.012 48.4314 139.24C48.4314 138.469 49.0569 137.843 49.8285 137.843C50.6 137.843 51.2255 138.469 51.2255 139.24Z" fill="#CCD0E8"/>
<path opacity="0.3" d="M82.8921 139.24C82.8921 140.012 82.2667 140.637 81.4951 140.637C80.7235 140.637 80.098 140.012 80.098 139.24C80.098 138.469 80.7235 137.843 81.4951 137.843C82.2667 137.843 82.8921 138.469 82.8921 139.24Z" fill="#CCD0E8"/>
<path opacity="0.3" d="M114.559 139.24C114.559 140.012 113.933 140.637 113.162 140.637C112.39 140.637 111.765 140.012 111.765 139.24C111.765 138.469 112.39 137.843 113.162 137.843C113.933 137.843 114.559 138.469 114.559 139.24Z" fill="#CCD0E8"/>
<path opacity="0.3" d="M57.745 139.24C57.745 140.012 57.1196 140.637 56.348 140.637C55.5764 140.637 54.9509 140.012 54.9509 139.24C54.9509 138.469 55.5764 137.843 56.348 137.843C57.1196 137.843 57.745 138.469 57.745 139.24Z" fill="#CCD0E8"/>
<path opacity="0.3" d="M89.4118 139.24C89.4118 140.012 88.7863 140.637 88.0147 140.637C87.2432 140.637 86.6177 140.012 86.6177 139.24C86.6177 138.469 87.2432 137.843 88.0147 137.843C88.7863 137.843 89.4118 138.469 89.4118 139.24Z" fill="#CCD0E8"/>
<path opacity="0.3" d="M121.078 139.24C121.078 140.012 120.453 140.637 119.681 140.637C118.91 140.637 118.284 140.012 118.284 139.24C118.284 138.469 118.91 137.843 119.681 137.843C120.453 137.843 121.078 138.469 121.078 139.24Z" fill="#CCD0E8"/>
<path d="M49.0247 29.4167L51.8636 32.4902H50.1424L47.8624 29.8414V32.4902H46.5883V24.2196H47.8624V29.0255L50.0977 26.332H51.8636L49.0247 29.4167Z" fill="#9B9B9A"/>
<path d="M39.462 29.4054C39.462 28.7721 39.5887 28.217 39.842 27.7401C40.1028 27.2558 40.4605 26.8833 40.915 26.6225C41.3695 26.3617 41.8911 26.2313 42.4797 26.2313C43.2248 26.2313 43.8395 26.4101 44.3238 26.7678C44.8156 27.118 45.1471 27.6209 45.3185 28.2766H43.9438C43.832 27.9711 43.6532 27.7327 43.4073 27.5613C43.1614 27.39 42.8522 27.3043 42.4797 27.3043C41.9581 27.3043 41.5409 27.4905 41.2279 27.8631C40.9224 28.2282 40.7697 28.7423 40.7697 29.4054C40.7697 30.0686 40.9224 30.5864 41.2279 30.959C41.5409 31.3315 41.9581 31.5178 42.4797 31.5178C43.2173 31.5178 43.7054 31.1937 43.9438 30.5454H45.3185C45.1397 31.1713 44.8044 31.6705 44.3126 32.0431C43.8209 32.4082 43.2099 32.5907 42.4797 32.5907C41.8911 32.5907 41.3695 32.4603 40.915 32.1996C40.4605 31.9313 40.1028 31.5588 39.842 31.0819C39.5887 30.5976 39.462 30.0388 39.462 29.4054Z" fill="#9B9B9A"/>
<path d="M31.8873 29.3831C31.8873 28.7647 32.014 28.217 32.2673 27.7401C32.5281 27.2633 32.8783 26.8945 33.3179 26.6337C33.765 26.3654 34.2567 26.2313 34.7932 26.2313C35.2775 26.2313 35.6985 26.3282 36.0562 26.5219C36.4213 26.7082 36.7118 26.9429 36.9279 27.226V26.3319H38.2132V32.4901H36.9279V31.5737C36.7118 31.8643 36.4175 32.1064 36.045 32.3001C35.6724 32.4939 35.2477 32.5907 34.7709 32.5907C34.2418 32.5907 33.7575 32.4566 33.3179 32.1884C32.8783 31.9127 32.5281 31.5327 32.2673 31.0484C32.014 30.5566 31.8873 30.0015 31.8873 29.3831ZM36.9279 29.4054C36.9279 28.9807 36.8385 28.6119 36.6597 28.299C36.4883 27.986 36.2611 27.7476 35.9779 27.5837C35.6948 27.4198 35.3893 27.3378 35.0614 27.3378C34.7336 27.3378 34.4281 27.4198 34.145 27.5837C33.8618 27.7401 33.6309 27.9749 33.452 28.2878C33.2807 28.5933 33.195 28.9584 33.195 29.3831C33.195 29.8078 33.2807 30.1803 33.452 30.5007C33.6309 30.8211 33.8618 31.067 34.145 31.2384C34.4356 31.4023 34.7411 31.4843 35.0614 31.4843C35.3893 31.4843 35.6948 31.4023 35.9779 31.2384C36.2611 31.0745 36.4883 30.836 36.6597 30.5231C36.8385 30.2027 36.9279 29.8301 36.9279 29.4054Z" fill="#9B9B9A"/>
<path d="M29.4299 28.5002C29.8471 28.5747 30.201 28.7945 30.4916 29.1596C30.7822 29.5247 30.9275 29.9382 30.9275 30.4002C30.9275 30.7951 30.8232 31.1527 30.6146 31.4731C30.4134 31.7861 30.1191 32.0357 29.7316 32.2219C29.3442 32.4008 28.8934 32.4902 28.3793 32.4902H25.2722V24.7225H28.234C28.763 24.7225 29.2175 24.8119 29.5975 24.9908C29.9775 25.1696 30.2644 25.4118 30.4581 25.7172C30.6518 26.0153 30.7487 26.3506 30.7487 26.7231C30.7487 27.1702 30.6295 27.5427 30.391 27.8408C30.1526 28.1388 29.8322 28.3586 29.4299 28.5002ZM26.5463 27.9861H28.1222C28.5395 27.9861 28.8636 27.8929 29.0946 27.7067C29.333 27.5129 29.4522 27.2372 29.4522 26.8796C29.4522 26.5294 29.333 26.2574 29.0946 26.0637C28.8636 25.8625 28.5395 25.7619 28.1222 25.7619H26.5463V27.9861ZM28.2675 31.4508C28.6997 31.4508 29.0387 31.3465 29.2846 31.1378C29.5305 30.9292 29.6534 30.6386 29.6534 30.2661C29.6534 29.8861 29.523 29.5843 29.2622 29.3608C29.0014 29.1372 28.655 29.0255 28.2228 29.0255H26.5463V31.4508H28.2675Z" fill="#9B9B9A"/>
<defs>
<filter id="filter0_dddd_29_252" x="5.58825" y="73.5784" width="178.824" height="121.078" filterUnits="userSpaceOnUse" color-interpolation-filters="sRGB">
<feFlood flood-opacity="0" result="BackgroundImageFix"/>
<feColorMatrix in="SourceAlpha" type="matrix" values="0 0 0 0 0 0 0 0 0 0 0 0 0 0 0 0 0 0 127 0" result="hardAlpha"/>
<feOffset dy="0.6327"/>
<feGaussianBlur stdDeviation="0.4218"/>
<feColorMatrix type="matrix" values="0 0 0 0 0.141176 0 0 0 0 0.141176 0 0 0 0 0.133333 0 0 0 0.0278729 0"/>
<feBlend mode="normal" in2="BackgroundImageFix" result="effect1_dropShadow_29_252"/>
<feColorMatrix in="SourceAlpha" type="matrix" values="0 0 0 0 0 0 0 0 0 0 0 0 0 0 0 0 0 0 127 0" result="hardAlpha"/>
<feOffset dy="1.74933"/>
<feGaussianBlur stdDeviation="1.16622"/>
<feColorMatrix type="matrix" values="0 0 0 0 0.141176 0 0 0 0 0.141176 0 0 0 0 0.133333 0 0 0 0.04 0"/>
<feBlend mode="normal" in2="effect1_dropShadow_29_252" result="effect2_dropShadow_29_252"/>
<feColorMatrix in="SourceAlpha" type="matrix" values="0 0 0 0 0 0 0 0 0 0 0 0 0 0 0 0 0 0 127 0" result="hardAlpha"/>
<feOffset dy="4.21172"/>
<feGaussianBlur stdDeviation="2.80782"/>
<feColorMatrix type="matrix" values="0 0 0 0 0.141176 0 0 0 0 0.141176 0 0 0 0 0.133333 0 0 0 0.0521271 0"/>
<feBlend mode="normal" in2="effect2_dropShadow_29_252" result="effect3_dropShadow_29_252"/>
<feColorMatrix in="SourceAlpha" type="matrix" values="0 0 0 0 0 0 0 0 0 0 0 0 0 0 0 0 0 0 127 0" result="hardAlpha"/>
<feOffset dy="13.9706"/>
<feGaussianBlur stdDeviation="9.31373"/>
<feColorMatrix type="matrix" values="0 0 0 0 0.141176 0 0 0 0 0.141176 0 0 0 0 0.133333 0 0 0 0.08 0"/>
<feBlend mode="normal" in2="effect3_dropShadow_29_252" result="effect4_dropShadow_29_252"/>
<feBlend mode="normal" in="SourceGraphic" in2="effect4_dropShadow_29_252" result="shape"/>
</filter>
<clipPath id="clip0_29_252">
<rect width="22.3529" height="4.65686" fill="white" transform="translate(83.8235 193.725)"/>
</clipPath>
</defs>
</svg>
