<svg width="24" height="14" viewBox="0 0 24 14" fill="none" xmlns="http://www.w3.org/2000/svg">
<g clip-path="url(#clip0_92_14)">
<path d="M23 2H1C0.33333 2 0 1.66667 0 1C0 0.33333 0.33333 0 1 0H23C23.6667 0 24 0.33333 24 1C24 1.66667 23.6667 2 23 2ZM23 8H1C0.33333 8 0 7.66667 0 7C0 6.33333 0.33333 6 1 6H23C23.6667 6 24 6.33333 24 7C24 7.66667 23.6667 8 23 8ZM23 14H1C0.33333 14 0 13.6667 0 13C0 12.3333 0.33333 12 1 12H23C23.6667 12 24 12.3333 24 13C24 13.6667 23.6667 14 23 14Z" fill="#292E47"/>
</g>
<defs>
<clipPath id="clip0_92_14">
<rect width="24" height="14" fill="white"/>
</clipPath>
</defs>
</svg>
