<svg width="18" height="18" viewBox="0 0 18 18" fill="none" xmlns="http://www.w3.org/2000/svg">
<path fill-rule="evenodd" clip-rule="evenodd" d="M9 10.4142L16.071 17.4852C16.5424 17.9567 17.0139 17.9567 17.4853 17.4852C17.9567 17.0138 17.9567 16.5424 17.4853 16.071L10.4142 8.99999L17.4853 1.92892C17.9567 1.45751 17.9567 0.986111 17.4853 0.514704C17.0139 0.0432975 16.5425 0.0432975 16.0711 0.514704L9 7.58578L1.92891 0.514686C1.4575 0.0432789 0.986102 0.0432789 0.514695 0.514686C0.0432881 0.986093 0.0432881 1.45749 0.514695 1.9289L7.58579 8.99999L0.514724 16.0711C0.0433171 16.5425 0.0433171 17.0139 0.514724 17.4853C0.986131 17.9567 1.45753 17.9567 1.92894 17.4853L9 10.4142Z" fill="#292E47"/>
</svg>
